<?xml version="1.0" encoding="UTF-8" standalone="no"?>
<svg
   xmlns:dc="http://purl.org/dc/elements/1.1/"
   xmlns:cc="http://creativecommons.org/ns#"
   xmlns:rdf="http://www.w3.org/1999/02/22-rdf-syntax-ns#"
   xmlns:svg="http://www.w3.org/2000/svg"
   xmlns="http://www.w3.org/2000/svg"
   xmlns:sodipodi="http://sodipodi.sourceforge.net/DTD/sodipodi-0.dtd"
   xmlns:inkscape="http://www.inkscape.org/namespaces/inkscape"
   width="297mm"
   height="210mm"
   viewBox="0 0 1052.3622 744.09448"
   id="svg2"
   version="1.1"
   inkscape:version="0.91 r13725"
   sodipodi:docname="logo.svg">
  <defs
     id="defs4" />
  <sodipodi:namedview
     id="base"
     pagecolor="#ffffff"
     bordercolor="#666666"
     borderopacity="1.0"
     inkscape:pageopacity="0.0"
     inkscape:pageshadow="2"
     inkscape:zoom="0.35"
     inkscape:cx="445.9408"
     inkscape:cy="574.00585"
     inkscape:document-units="px"
     inkscape:current-layer="layer1"
     showgrid="false"
     inkscape:window-width="1366"
     inkscape:window-height="721"
     inkscape:window-x="0"
     inkscape:window-y="0"
     inkscape:window-maximized="1" />
  <metadata
     id="metadata7">
    <rdf:RDF>
      <cc:Work
         rdf:about="">
        <dc:format>image/svg+xml</dc:format>
        <dc:type
           rdf:resource="http://purl.org/dc/dcmitype/StillImage" />
        <dc:title />
      </cc:Work>
    </rdf:RDF>
  </metadata>
  <g
     inkscape:label="Layer 1"
     inkscape:groupmode="layer"
     id="layer1"
     transform="translate(0,-308.26772)">
    <flowRoot
       transform="translate(0,308.26772)"
       style="font-style:normal;font-weight:normal;font-size:40px;line-height:125%;font-family:sans-serif;letter-spacing:0px;word-spacing:0px;fill:#000000;fill-opacity:1;stroke:none;stroke-width:1px;stroke-linecap:butt;stroke-linejoin:miter;stroke-opacity:1"
       id="flowRoot3349"
       xml:space="preserve"><flowRegion
         id="flowRegion3351"><rect
           y="-33.04837"
           x="122.85714"
           height="391.42856"
           width="531.42859"
           id="rect3353" /></flowRegion><flowPara
         id="flowPara3355" /></flowRoot>    <path
       style="font-style:normal;font-weight:normal;font-size:medium;line-height:125%;font-family:sans-serif;letter-spacing:0px;word-spacing:0px;fill:#cccccc;fill-opacity:1;stroke:#000000;stroke-width:10;stroke-linecap:butt;stroke-linejoin:miter;stroke-miterlimit:4;stroke-dasharray:none;stroke-opacity:1"
       d="m 366.55055,312.47044 c -81.91196,0 -136.84855,9.58932 -164.81045,28.76625 -27.63296,18.91782 -41.44934,57.01276 -41.44934,114.28449 l 0,93.29225 c 0,38.61305 -8.88195,65.43569 -26.646,80.46624 -17.43507,14.77146 -49.673295,22.15717 -96.715113,22.15717 l -30.1001085,0 0,55.58702 30.1001085,0 c 46.712856,0 78.951073,7.51491 96.715113,22.54547 17.76405,15.03058 26.646,42.11154 26.646,81.24291 l 0,92.90589 c 0,57.27169 13.81638,95.49574 41.44934,114.67287 27.9619,19.1767 82.89849,28.7642 164.81045,28.7642 l 30.59354,0 0,-55.97538 -33.55421,0 c -46.38388,0 -76.64834,-5.7007 -90.79376,-17.10322 C 258.65065,962.67408 251.578,938.70277 251.578,902.16291 l 0,-96.40263 c 0,-40.42708 -7.40164,-69.84079 -22.20501,-88.24029 -14.80337,-18.39953 -40.46238,-31.09849 -76.97734,-38.09548 36.186,-6.47868 61.68054,-18.91738 76.48388,-37.31693 15.13236,-18.39947 22.69847,-47.94234 22.69847,-88.62859 l 0,-96.40262 c 0,-36.53988 7.07265,-60.51115 21.21812,-71.91369 14.14542,-11.4025 44.40988,-17.10324 90.79376,-17.10324 l 33.55421,0 0,-55.589 -30.59354,0 z m 293.83432,0 0,55.589 33.55421,0 c 46.38388,0 76.64837,5.70074 90.79376,17.10324 14.1455,11.40254 21.21811,35.37381 21.21811,71.91369 l 0,96.40262 c 0,40.68625 7.56614,70.22912 22.69843,88.62859 14.80345,18.39955 40.29796,30.83825 76.4839,37.31693 -36.51495,6.99699 -62.17392,19.69595 -76.97729,38.09548 -14.80334,18.3995 -22.20504,47.81321 -22.20504,88.24029 l 0,96.40263 c 0,36.53986 -7.07261,60.51117 -21.21811,71.91369 -14.14539,11.40252 -44.40988,17.10322 -90.79376,17.10322 l -33.55421,0 0,55.97538 30.59355,0 c 81.91196,0 136.84851,-9.5875 164.81047,-28.7642 27.63289,-19.17713 41.44934,-57.40118 41.44934,-114.67287 l 0,-92.90589 c 0,-39.13137 8.8819,-66.21232 26.64596,-81.24291 17.76412,-15.03056 50.00433,-22.54547 96.71711,-22.54547 l 30.1001,0 0,-55.58702 -30.1001,0 c -47.04177,0 -79.28199,-7.38571 -96.71711,-22.15717 -17.76406,-15.03055 -26.64596,-41.85319 -26.64596,-80.46624 l 0,-93.29225 c 0,-57.27173 -13.81645,-95.36667 -41.44934,-114.28449 -27.96196,-19.17693 -82.89851,-28.76625 -164.81047,-28.76625 l -30.59355,0 z M 490.43076,452.51561 c -46.14843,0 -83.14205,9.78071 -110.98159,29.34098 -27.83954,19.36263 -41.75921,45.04727 -41.75921,77.05492 0,11.85468 3.13489,24.00549 9.40504,36.45287 6.27019,12.24986 15.42444,24.59963 27.46317,37.04705 -33.6081,19.56023 -58.81533,40.50277 -75.61939,62.82909 -16.80404,22.12872 -25.20515,45.83732 -25.20515,71.12732 0,42.47927 19.18592,77.35356 57.55932,104.61936 38.37342,27.06819 87.78238,40.60203 148.22676,40.60203 32.85567,0 63.57953,-4.24858 92.17147,-12.74444 28.59197,-8.69343 55.93053,-21.83324 82.01442,-39.41768 l 53.79729,43.56679 94.80452,0 -104.96158,-84.46393 c 23.32499,-24.89486 41.50932,-50.08596 54.55123,-75.57353 13.04201,-25.48759 21.06653,-51.27167 24.07619,-77.352 l -69.97436,0 c -1.50486,22.52392 -6.39646,43.86241 -14.67308,64.01539 -8.27663,19.95535 -19.81259,38.72482 -34.6102,56.3093 L 465.60064,631.81732 c -22.8234,-18.57233 -37.99703,-32.8962 -45.52125,-42.97271 -7.27339,-10.27404 -10.91105,-20.4488 -10.91105,-30.5253 0,-17.38683 8.1527,-31.51369 24.45511,-42.38047 16.55325,-11.06439 37.99665,-16.59653 64.33135,-16.59653 17.05484,0 35.48957,2.46957 55.30328,7.409 19.8137,4.74185 40.63013,11.75654 62.45031,21.04274 l 0,-53.9406 c -21.31854,-7.11282 -42.38734,-12.44599 -63.20429,-16.00239 -20.56614,-3.55642 -41.2564,-5.33545 -62.07334,-5.33545 z m -77.8754,212.4947 199.39103,160.92866 c -18.30888,12.64502 -37.87137,22.12729 -58.68831,28.44976 -20.81696,6.12494 -43.13971,9.1875 -66.96634,9.1875 -40.12906,0 -73.48699,-9.58174 -100.0725,-28.74681 -26.58551,-19.16506 -39.87822,-43.17021 -39.87822,-72.0166 0,-17.38687 5.26819,-33.98326 15.80207,-49.78952 10.78468,-16.00381 27.58885,-32.00915 50.41227,-48.01299 z"
       id="path3428"
       inkscape:connector-curvature="0" />
  </g>
</svg>
