<?xml version="1.0" encoding="UTF-8" standalone="no"?>
<svg
   xmlns:dc="http://purl.org/dc/elements/1.1/"
   xmlns:cc="http://creativecommons.org/ns#"
   xmlns:rdf="http://www.w3.org/1999/02/22-rdf-syntax-ns#"
   xmlns:svg="http://www.w3.org/2000/svg"
   xmlns="http://www.w3.org/2000/svg"
   xmlns:sodipodi="http://sodipodi.sourceforge.net/DTD/sodipodi-0.dtd"
   xmlns:inkscape="http://www.inkscape.org/namespaces/inkscape"
   width="297mm"
   height="210mm"
   viewBox="0 0 1052.3622 744.09448"
   id="svg2"
   version="1.1"
   inkscape:version="0.91 r13725"
   sodipodi:docname="logo_green.svg"
   inkscape:export-filename="/home/geocarlos/platform/main_site/main_site_client/public/favicon.ico"
   inkscape:export-xdpi="30.940001"
   inkscape:export-ydpi="30.940001">
  <defs
     id="defs4" />
  <sodipodi:namedview
     id="base"
     pagecolor="#ffffff"
     bordercolor="#666666"
     borderopacity="1.0"
     inkscape:pageopacity="0.0"
     inkscape:pageshadow="2"
     inkscape:zoom="0.35"
     inkscape:cx="864.51223"
     inkscape:cy="429.55284"
     inkscape:document-units="px"
     inkscape:current-layer="layer1"
     showgrid="false"
     inkscape:window-width="1366"
     inkscape:window-height="721"
     inkscape:window-x="0"
     inkscape:window-y="0"
     inkscape:window-maximized="1" />
  <metadata
     id="metadata7">
    <rdf:RDF>
      <cc:Work
         rdf:about="">
        <dc:format>image/svg+xml</dc:format>
        <dc:type
           rdf:resource="http://purl.org/dc/dcmitype/StillImage" />
        <dc:title></dc:title>
      </cc:Work>
    </rdf:RDF>
  </metadata>
  <g
     inkscape:label="Layer 1"
     inkscape:groupmode="layer"
     id="layer1"
     transform="translate(0,-308.26772)">
    <flowRoot
       transform="translate(0,308.26772)"
       style="font-style:normal;font-weight:normal;font-size:40px;line-height:125%;font-family:sans-serif;letter-spacing:0px;word-spacing:0px;fill:#000000;fill-opacity:1;stroke:none;stroke-width:1px;stroke-linecap:butt;stroke-linejoin:miter;stroke-opacity:1"
       id="flowRoot3349"
       xml:space="preserve"><flowRegion
         id="flowRegion3351"><rect
           y="-33.04837"
           x="122.85714"
           height="391.42856"
           width="531.42859"
           id="rect3353" /></flowRegion><flowPara
         id="flowPara3355"></flowPara></flowRoot>    <path
       style="font-style:normal;font-weight:normal;font-size:medium;line-height:125%;font-family:sans-serif;letter-spacing:0px;word-spacing:0px;opacity:1;fill:#33aa88;fill-opacity:1;stroke:#000000;stroke-width:8.42529488;stroke-linecap:butt;stroke-linejoin:miter;stroke-miterlimit:4;stroke-dasharray:none;stroke-opacity:1"
       d="m 411.24798,317.02611 c -57.76492,0 -96.5066,9.60837 -116.22554,28.82346 -19.48697,18.95545 -29.23039,57.12617 -29.23039,114.5118 l 0,93.47783 c 0,38.68985 -6.26361,65.56585 -18.79095,80.62632 -12.29534,14.80083 -35.02998,22.20123 -68.20421,22.20123 l -21.22682,0 0,55.6976 21.22682,0 c 32.94225,0 55.67688,7.52983 68.20421,22.5903 12.52734,15.0605 18.79095,42.19533 18.79095,81.40452 l 0,93.09073 c 0,57.38552 9.74342,95.6859 29.23039,114.9008 19.71894,19.2151 58.46062,28.8216 116.22554,28.8216 l 21.5748,0 0,-56.08663 -23.66271,0 c -32.71023,0 -54.05295,-5.71226 -64.02842,-17.13736 -9.97548,-11.4251 -14.96317,-35.44422 -14.96317,-72.05677 l 0,-96.59438 c 0,-40.50748 -5.21969,-69.97971 -15.65913,-88.41582 -10.43945,-18.43611 -28.53436,-31.16032 -54.28498,-38.17124 25.51863,-6.49159 43.49756,-18.95502 53.937,-37.39113 10.67143,-18.43611 16.00711,-48.03774 16.00711,-88.80491 l 0,-96.59441 c 0,-36.61253 4.98769,-60.6315 14.96317,-72.05672 9.97547,-11.42518 31.31819,-17.13727 64.02842,-17.13727 l 23.66271,0 0,-55.69955 -21.5748,0 z m 207.21414,0 0,55.69955 23.66265,0 c 32.71027,0 54.05301,5.71209 64.02849,17.13727 9.97548,11.42522 14.96312,35.44419 14.96312,72.05672 l 0,96.59441 c 0,40.76717 5.3357,70.3688 16.00712,88.80491 10.43945,18.43611 28.41837,30.89954 53.93702,37.39113 -25.75063,7.01092 -43.84554,19.73513 -54.28499,38.17124 -10.43944,18.43611 -15.65915,47.90834 -15.65915,88.41582 l 0,96.59438 c 0,36.61255 -4.98764,60.63167 -14.96312,72.05677 -9.97548,11.4251 -31.31822,17.13736 -64.02849,17.13736 l -23.66265,0 0,56.08663 21.5748,0 c 57.76492,0 96.5066,-9.6065 116.22553,-28.8216 19.48695,-19.2149 29.23039,-57.51528 29.23039,-114.9008 l 0,-93.09073 c 0,-39.20919 6.26362,-66.34402 18.79097,-81.40452 12.5273,-15.06047 35.26334,-22.5903 68.2056,-22.5903 l 21.22677,0 0,-55.6976 -21.22677,0 c -33.17424,0 -55.91028,-7.4004 -68.2056,-22.20123 -12.52735,-15.06047 -18.79097,-41.93647 -18.79097,-80.62632 l 0,-93.47783 c 0,-57.38563 -9.74344,-95.55635 -29.23039,-114.5118 -19.71893,-19.21509 -58.46061,-28.82346 -116.22553,-28.82346 l -21.5748,0 z M 498.60921,457.34984 c -32.54419,0 -58.63238,9.80019 -78.26501,29.39931 -19.63266,19.40118 -29.44892,45.13691 -29.44892,77.20822 0,11.87827 2.21075,24.05323 6.63251,36.52541 4.42177,12.27421 10.87741,24.64855 19.36721,37.12073 -23.70067,19.59913 -41.477,40.5833 -53.32733,62.95403 -11.85034,22.17276 -17.77486,45.92851 -17.77486,71.26881 0,42.5638 13.53004,77.50747 40.59125,104.82748 27.06122,27.12192 61.90478,40.68271 104.53062,40.68271 23.17004,0 44.83672,-4.25685 65.00001,-12.76969 20.16325,-8.7109 39.44262,-21.87667 57.83714,-39.49611 l 37.93827,43.6535 66.85681,0 -74.01967,-84.632 c 16.44897,-24.94437 29.2727,-50.18557 38.46996,-75.72385 9.19729,-25.53827 14.85621,-51.37365 16.97868,-77.50587 l -49.34642,0 c -1.06124,22.56872 -4.51085,43.94967 -10.34756,64.14274 -5.83674,19.99508 -13.972,38.80188 -24.40737,56.42129 L 481.09884,637.0082 c -16.09525,-18.60928 -26.79578,-32.96165 -32.10193,-43.05819 -5.12923,-10.29448 -7.69454,-20.48947 -7.69454,-30.586 0,-17.42146 5.74932,-31.5764 17.24594,-42.4648 11.67345,-11.08638 26.79549,-16.62954 45.36691,-16.62954 12.02721,0 25.02751,2.47448 39.0003,7.42376 13.97275,4.75133 28.65268,11.7799 44.04041,21.08455 l 0,-54.04789 c -15.03398,-7.12694 -29.89187,-12.47073 -44.57214,-16.0342 -14.50338,-3.56347 -29.0943,-5.34605 -43.77458,-5.34605 z m -54.9183,212.91741 140.61202,161.24874 c -12.91154,12.67016 -26.70717,22.1713 -41.38741,28.50635 -14.68027,6.13711 -30.42246,9.20579 -47.22517,9.20579 -28.2993,0 -51.8236,-9.60082 -70.57187,-28.80401 -18.74831,-19.20319 -28.1224,-43.25605 -28.1224,-72.15985 0,-17.42146 3.71516,-34.05085 11.14372,-49.88855 7.60542,-16.03565 19.45586,-32.07285 35.55111,-48.10847 z"
       id="path3428"
       inkscape:connector-curvature="0"
       inkscape:export-filename="/home/geocarlos/platform/main_site/main_site_client/public/favicon.ico"
       inkscape:export-xdpi="30.26"
       inkscape:export-ydpi="30.26" />
  </g>
</svg>
